{"title":"Bhoomi 2017 Hindi 720p HDRip x264 AAC { TaRa }","magnet":"magnet:?xt=urn:btih:2074824857fabf24cd45ecf4b2e0d02d5ed60886&dn=Bhoomi+2017+Hindi+720p+HDRip+x264+AAC+%7B+TaRa+%7D&tr=udp%3A%2F%2Ftracker.leechers-paradise.org%3A6969&tr=udp%3A%2F%2Fzer0day.ch%3A1337&tr=udp%3A%2F%2Fopen.demonii.com%3A1337&tr=udp%3A%2F%2Ftracker.coppersurfer.tk%3A6969&tr=udp%3A%2F%2Fexodus.desync.com%3A6969","uploader":"hukkaa","categoryP":"video","categoryS":"hd___movies","size":"1052136070","seeders":"1","leechers":"324","description":"===================================================================\r\nGeneral\r\nComplete name               :Bhoomi 2017 Hindi 720p HDRip x264 AAC { TaRa }.mkv\r\nFormat                      : Matroska\r\nFormat version              : Version 4 / Version 2\r\nFile size                   : 1 003 MiB\r\nDuration                    : 2 h 10 min\r\nOverall bit rate            : 1 071 kb/s\r\n===================================================================\r\nVideo\r\nID                          : 1\r\nFormat                      : AVC\r\nFormat/Info                 : Advanced Video Codec\r\nFormat profile              : <a href=\"/cdn-cgi/l/email-protection\" class=\"__cf_email__\" data-cfemail=\"763e1f111e363a425847\">[email&#xA0;protected]</a>\r\nFormat settings             : CABAC / 4 Ref Frames\r\nFormat settings, CABAC      : Yes\r\nFormat settings, RefFrames  : 4 frames\r\nCodec ID                    : V_MPEG4/ISO/AVC\r\nDuration                    : 2 h 10 min\r\nBit rate                    : 1 005 kb/s\r\nWidth                       : 1 280 pixels\r\nHeight                      : 542 pixels\r\nDisplay aspect ratio        : 2.40:1\r\nOriginal display aspect rat : 2.35:1\r\nFrame rate mode             : Constant\r\nFrame rate                  : 23.976 (24000/1001) FPS\r\nColor space                 : YUV\r\nChroma subsampling          : 4:2:0\r\nBit depth                   : 8 bits\r\nScan type                   : Progressive\r\nBits/(Pixel*Frame)          : 0.060\r\nStream size                 : 941 MiB (94%)\r\nTitle                       : .....::::: TaRa :::::.....\r\nLanguage                    : Hindi\r\nDefault                     : Yes\r\nForced                      : No\r\n===================================================================\r\nAudio\r\nID                          : 2\r\nFormat                      : AAC\r\nFormat/Info                 : Advanced Audio Codec\r\nFormat profile              : LC\r\nCodec ID                    : A_AAC-2\r\nDuration                    : 2 h 10 min\r\nBit rate                    : 64.3 kb/s\r\nChannel(s)                  : 2 channels\r\nChannel positions           : Front: L R\r\nSampling rate               : 48.0 kHz\r\nFrame rate                  : 46.875 FPS (1024 SPF)\r\nCompression mode            : Lossy\r\nStream size                 : 60.2 MiB (6%)\r\nTitle                       : .....::::: TaRa :::::.....\r\nLanguage                    : Hindi\r\nDefault                     : Yes\r\nForced                      : No\r\n=================================================================== <a href=\"\nhttps://extraimage.net/image/TX2L\" rel=\"nofollow\" target=\"_NEW\">\nhttps://extraimage.net/image/TX2L</a> <a href=\"\nhttps://extraimage.net/image/TX2Q\" rel=\"nofollow\" target=\"_NEW\">\nhttps://extraimage.net/image/TX2Q</a> <a href=\"\nhttps://extraimage.net/image/TX2R\" rel=\"nofollow\" target=\"_NEW\">\nhttps://extraimage.net/image/TX2R</a> <a href=\"\nhttps://extraimage.net/image/TX2m\" rel=\"nofollow\" target=\"_NEW\">\nhttps://extraimage.net/image/TX2m</a> <a href=\"\nhttps://extraimage.net/image/TX2i\" rel=\"nofollow\" target=\"_NEW\">\nhttps://extraimage.net/image/TX2i</a> <a href=\"\nhttps://extraimage.net/image/TX2l\" rel=\"nofollow\" target=\"_NEW\">\nhttps://extraimage.net/image/TX2l</a> <a href=\"\nhttps://extraimage.net/image/TX2I\" rel=\"nofollow\" target=\"_NEW\">\nhttps://extraimage.net/image/TX2I</a> <a href=\"\nhttps://extraimage.net/image/TX2d\" rel=\"nofollow\" target=\"_NEW\">\nhttps://extraimage.net/image/TX2d</a> <a href=\"\nhttps://extraimage.net/image/TX2h\" rel=\"nofollow\" target=\"_NEW\">\nhttps://extraimage.net/image/TX2h</a> <a href=\"\nhttps://extraimage.net/image/TX2b\" rel=\"nofollow\" target=\"_NEW\">\nhttps://extraimage.net/image/TX2b</a> <a href=\"\nhttps://extraimage.net/image/TX23\" rel=\"nofollow\" target=\"_NEW\">\nhttps://extraimage.net/image/TX23</a> <a href=\"\nhttps://extraimage.net/image/TX29\" rel=\"nofollow\" target=\"_NEW\">\nhttps://extraimage.net/image/TX29</a> <a href=\"\nhttps://extraimage.net/image/TX2M\" rel=\"nofollow\" target=\"_NEW\">\nhttps://extraimage.net/image/TX2M</a> <a href=\"\nhttps://extraimage.net/image/TX2U\" rel=\"nofollow\" target=\"_NEW\">\nhttps://extraimage.net/image/TX2U</a> <a href=\"\nhttps://extraimage.net/image/TX2z\" rel=\"nofollow\" target=\"_NEW\">\nhttps://extraimage.net/image/TX2z</a> <a href=\"\nhttps://extraimage.net/image/TX20\" rel=\"nofollow\" target=\"_NEW\">\nhttps://extraimage.net/image/TX20</a> <a href=\"\nhttps://extraimage.net/image/TX2J\" rel=\"nofollow\" target=\"_NEW\">\nhttps://extraimage.net/image/TX2J</a> <a href=\"\nhttps://extraimage.net/image/TX2K\" rel=\"nofollow\" target=\"_NEW\">\nhttps://extraimage.net/image/TX2K</a> <a href=\"\nhttps://extraimage.net/image/TX2Z\" rel=\"nofollow\" target=\"_NEW\">\nhttps://extraimage.net/image/TX2Z</a> <a href=\"\nhttps://extraimage.net/image/TX2e\" rel=\"nofollow\" target=\"_NEW\">\nhttps://extraimage.net/image/TX2e</a> <a href=\"\nhttps://extraimage.net/image/TX24\" rel=\"nofollow\" target=\"_NEW\">\nhttps://extraimage.net/image/TX24</a> <a href=\"\nhttps://extraimage.net/image/TX2B\" rel=\"nofollow\" target=\"_NEW\">\nhttps://extraimage.net/image/TX2B</a> <a href=\"\nhttps://extraimage.net/image/TX2C\" rel=\"nofollow\" target=\"_NEW\">\nhttps://extraimage.net/image/TX2C</a> <a href=\"\nhttps://extraimage.net/image/TX2Y\" rel=\"nofollow\" target=\"_NEW\">\nhttps://extraimage.net/image/TX2Y</a>","last_updated":"2017-10-29T12:08:50.375Z","parsed":{"xt":"urn:btih:2074824857fabf24cd45ecf4b2e0d02d5ed60886","dn":"Bhoomi 2017 Hindi 720p HDRip x264 AAC { TaRa }","tr":["udp://exodus.desync.com:6969","udp://open.demonii.com:1337","udp://tracker.coppersurfer.tk:6969","udp://tracker.leechers-paradise.org:6969","udp://zer0day.ch:1337"],"infoHash":"2074824857fabf24cd45ecf4b2e0d02d5ed60886","infoHashBuffer":{"type":"Buffer","data":[32,116,130,72,87,250,191,36,205,69,236,244,178,224,208,45,94,214,8,134]},"name":"Bhoomi 2017 Hindi 720p HDRip x264 AAC { TaRa }","announce":["udp://exodus.desync.com:6969","udp://open.demonii.com:1337","udp://tracker.coppersurfer.tk:6969","udp://tracker.leechers-paradise.org:6969","udp://zer0day.ch:1337"],"urlList":[]}}